<?xml version="1.0" encoding="UTF-8" standalone="no"?>
<!DOCTYPE svg PUBLIC "-//W3C//DTD SVG 1.1//EN"
 "http://www.w3.org/Graphics/SVG/1.1/DTD/svg11.dtd">
<!-- Generated by graphviz version 3.0.0 (20220226.1711)
 -->
<!-- Title: dependencies Pages: 1 -->
<svg width="567pt" height="247pt"
 viewBox="0.00 0.00 567.00 246.80" xmlns="http://www.w3.org/2000/svg" xmlns:xlink="http://www.w3.org/1999/xlink">
<g id="graph0" class="graph" transform="scale(1 1) rotate(0) translate(4 242.8)">
<title>dependencies</title>
<polygon fill="white" stroke="transparent" points="-4,4 -4,-242.8 563,-242.8 563,4 -4,4"/>
<text text-anchor="middle" x="279.5" y="-8.2" font-family="sans-serif" font-size="14.00">dependencies</text>
<g id="clust1" class="cluster">
<title>cluster_AppModule</title>
<polygon fill="none" stroke="black" stroke-dasharray="1,5" points="8,-32.8 8,-230.8 551,-230.8 551,-32.8 8,-32.8"/>
</g>
<g id="clust2" class="cluster">
<title>cluster_AppModule_declarations</title>
<polygon fill="none" stroke="black" points="168,-40.8 168,-92.8 543,-92.8 543,-40.8 168,-40.8"/>
</g>
<g id="clust6" class="cluster">
<title>cluster_AppModule_imports</title>
<polygon fill="none" stroke="black" points="16,-40.8 16,-92.8 160,-92.8 160,-40.8 16,-40.8"/>
</g>
<g id="clust8" class="cluster">
<title>cluster_AppModule_bootstrap</title>
<polygon fill="none" stroke="black" points="229,-170.8 229,-222.8 353,-222.8 353,-170.8 229,-170.8"/>
</g>
<!-- Act1Component -->
<g id="node1" class="node">
<title>Act1Component</title>
<polygon fill="#ffffb3" stroke="black" points="535.05,-84.8 426.95,-84.8 426.95,-48.8 535.05,-48.8 535.05,-84.8"/>
<text text-anchor="middle" x="481" y="-62.6" font-family="Times,serif" font-size="14.00">Act1Component</text>
</g>
<!-- AppModule -->
<g id="node4" class="node">
<title>AppModule</title>
<polygon fill="#8dd3c7" stroke="black" points="332.66,-149.8 329.66,-153.8 308.66,-153.8 305.66,-149.8 249.34,-149.8 249.34,-113.8 332.66,-113.8 332.66,-149.8"/>
<text text-anchor="middle" x="291" y="-127.6" font-family="Times,serif" font-size="14.00">AppModule</text>
</g>
<!-- Act1Component&#45;&gt;AppModule -->
<g id="edge1" class="edge">
<title>Act1Component&#45;&gt;AppModule</title>
<path fill="none" stroke="black" d="M481,-84.91C481,-104.14 481,-131.8 481,-131.8 481,-131.8 342.7,-131.8 342.7,-131.8"/>
<polygon fill="black" stroke="black" points="342.7,-128.3 332.7,-131.8 342.7,-135.3 342.7,-128.3"/>
</g>
<!-- Act2Component -->
<g id="node2" class="node">
<title>Act2Component</title>
<polygon fill="#ffffb3" stroke="black" points="408.05,-84.8 299.95,-84.8 299.95,-48.8 408.05,-48.8 408.05,-84.8"/>
<text text-anchor="middle" x="354" y="-62.6" font-family="Times,serif" font-size="14.00">Act2Component</text>
</g>
<!-- Act2Component&#45;&gt;AppModule -->
<g id="edge2" class="edge">
<title>Act2Component&#45;&gt;AppModule</title>
<path fill="none" stroke="black" d="M316.28,-84.91C316.28,-84.91 316.28,-103.79 316.28,-103.79"/>
<polygon fill="black" stroke="black" points="312.78,-103.79 316.28,-113.79 319.78,-103.79 312.78,-103.79"/>
</g>
<!-- AppComponent -->
<g id="node3" class="node">
<title>AppComponent</title>
<polygon fill="#ffffb3" stroke="black" points="281.94,-84.8 176.06,-84.8 176.06,-48.8 281.94,-48.8 281.94,-84.8"/>
<text text-anchor="middle" x="229" y="-62.6" font-family="Times,serif" font-size="14.00">AppComponent</text>
</g>
<!-- AppComponent&#45;&gt;AppModule -->
<g id="edge3" class="edge">
<title>AppComponent&#45;&gt;AppModule</title>
<path fill="none" stroke="black" d="M265.44,-84.91C265.44,-84.91 265.44,-103.79 265.44,-103.79"/>
<polygon fill="black" stroke="black" points="261.94,-103.79 265.44,-113.79 268.94,-103.79 261.94,-103.79"/>
</g>
<!-- AppComponent  -->
<g id="node6" class="node">
<title>AppComponent </title>
<polygon fill="#80b1d3" stroke="black" points="345.44,-214.8 236.56,-214.8 236.56,-178.8 345.44,-178.8 345.44,-214.8"/>
<text text-anchor="middle" x="291" y="-192.6" font-family="Times,serif" font-size="14.00">AppComponent </text>
</g>
<!-- AppModule&#45;&gt;AppComponent  -->
<g id="edge5" class="edge">
<title>AppModule&#45;&gt;AppComponent </title>
<path fill="none" stroke="black" stroke-dasharray="1,5" d="M291,-149.91C291,-149.91 291,-168.79 291,-168.79"/>
<polygon fill="black" stroke="black" points="287.5,-168.79 291,-178.79 294.5,-168.79 287.5,-168.79"/>
</g>
<!-- AppRoutingModule -->
<g id="node5" class="node">
<title>AppRoutingModule</title>
<polygon fill="#8dd3c7" stroke="black" points="152.28,-84.8 149.28,-88.8 128.28,-88.8 125.28,-84.8 23.72,-84.8 23.72,-48.8 152.28,-48.8 152.28,-84.8"/>
<text text-anchor="middle" x="88" y="-62.6" font-family="Times,serif" font-size="14.00">AppRoutingModule</text>
</g>
<!-- AppRoutingModule&#45;&gt;AppModule -->
<g id="edge4" class="edge">
<title>AppRoutingModule&#45;&gt;AppModule</title>
<path fill="none" stroke="black" d="M88,-84.91C88,-104.14 88,-131.8 88,-131.8 88,-131.8 238.94,-131.8 238.94,-131.8"/>
<polygon fill="black" stroke="black" points="238.94,-135.3 248.94,-131.8 238.94,-128.3 238.94,-135.3"/>
</g>
</g>
</svg>
