<?xml version="1.0" encoding="UTF-8" standalone="no"?>
<!DOCTYPE svg PUBLIC "-//W3C//DTD SVG 1.1//EN"
 "http://www.w3.org/Graphics/SVG/1.1/DTD/svg11.dtd">
<!-- Generated by graphviz version 3.0.0 (20220226.1711)
 -->
<!-- Title: dependencies Pages: 1 -->
<svg width="567pt" height="247pt"
 viewBox="0.00 0.00 567.00 246.80" xmlns="http://www.w3.org/2000/svg" xmlns:xlink="http://www.w3.org/1999/xlink">
<g id="graph0" class="graph" transform="scale(1 1) rotate(0) translate(4 242.8)">
<title>dependencies</title>
<polygon fill="white" stroke="transparent" points="-4,4 -4,-242.8 563,-242.8 563,4 -4,4"/>
<text text-anchor="middle" x="279.5" y="-8.2" font-family="sans-serif" font-size="14.00">dependencies</text>
<g id="clust1" class="cluster">
<title>cluster_AppModule</title>
<polygon fill="none" stroke="black" stroke-dasharray="1,5" points="8,-32.8 8,-230.8 551,-230.8 551,-32.8 8,-32.8"/>
</g>
<g id="clust6" class="cluster">
<title>cluster_AppModule_imports</title>
<polygon fill="none" stroke="black" points="399,-40.8 399,-92.8 543,-92.8 543,-40.8 399,-40.8"/>
</g>
<g id="clust8" class="cluster">
<title>cluster_AppModule_bootstrap</title>
<polygon fill="none" stroke="black" points="203,-170.8 203,-222.8 327,-222.8 327,-170.8 203,-170.8"/>
</g>
<g id="clust2" class="cluster">
<title>cluster_AppModule_declarations</title>
<polygon fill="none" stroke="black" points="16,-40.8 16,-92.8 391,-92.8 391,-40.8 16,-40.8"/>
</g>
<!-- Act1Component -->
<g id="node1" class="node">
<title>Act1Component</title>
<polygon fill="#ffffb3" stroke="black" points="383.05,-84.8 274.95,-84.8 274.95,-48.8 383.05,-48.8 383.05,-84.8"/>
<text text-anchor="middle" x="329" y="-62.6" font-family="Times,serif" font-size="14.00">Act1Component</text>
</g>
<!-- AppModule -->
<g id="node4" class="node">
<title>AppModule</title>
<polygon fill="#8dd3c7" stroke="black" points="306.66,-149.8 303.66,-153.8 282.66,-153.8 279.66,-149.8 223.34,-149.8 223.34,-113.8 306.66,-113.8 306.66,-149.8"/>
<text text-anchor="middle" x="265" y="-127.6" font-family="Times,serif" font-size="14.00">AppModule</text>
</g>
<!-- Act1Component&#45;&gt;AppModule -->
<g id="edge1" class="edge">
<title>Act1Component&#45;&gt;AppModule</title>
<path fill="none" stroke="black" d="M290.78,-84.91C290.78,-84.91 290.78,-103.79 290.78,-103.79"/>
<polygon fill="black" stroke="black" points="287.28,-103.79 290.78,-113.79 294.28,-103.79 287.28,-103.79"/>
</g>
<!-- Act2Component -->
<g id="node2" class="node">
<title>Act2Component</title>
<polygon fill="#ffffb3" stroke="black" points="256.05,-84.8 147.95,-84.8 147.95,-48.8 256.05,-48.8 256.05,-84.8"/>
<text text-anchor="middle" x="202" y="-62.6" font-family="Times,serif" font-size="14.00">Act2Component</text>
</g>
<!-- Act2Component&#45;&gt;AppModule -->
<g id="edge2" class="edge">
<title>Act2Component&#45;&gt;AppModule</title>
<path fill="none" stroke="black" d="M239.72,-84.91C239.72,-84.91 239.72,-103.79 239.72,-103.79"/>
<polygon fill="black" stroke="black" points="236.22,-103.79 239.72,-113.79 243.22,-103.79 236.22,-103.79"/>
</g>
<!-- AppComponent -->
<g id="node3" class="node">
<title>AppComponent</title>
<polygon fill="#ffffb3" stroke="black" points="129.94,-84.8 24.06,-84.8 24.06,-48.8 129.94,-48.8 129.94,-84.8"/>
<text text-anchor="middle" x="77" y="-62.6" font-family="Times,serif" font-size="14.00">AppComponent</text>
</g>
<!-- AppComponent&#45;&gt;AppModule -->
<g id="edge3" class="edge">
<title>AppComponent&#45;&gt;AppModule</title>
<path fill="none" stroke="black" d="M77,-84.91C77,-104.14 77,-131.8 77,-131.8 77,-131.8 213.28,-131.8 213.28,-131.8"/>
<polygon fill="black" stroke="black" points="213.28,-135.3 223.28,-131.8 213.28,-128.3 213.28,-135.3"/>
</g>
<!-- AppComponent  -->
<g id="node6" class="node">
<title>AppComponent </title>
<polygon fill="#80b1d3" stroke="black" points="319.44,-214.8 210.56,-214.8 210.56,-178.8 319.44,-178.8 319.44,-214.8"/>
<text text-anchor="middle" x="265" y="-192.6" font-family="Times,serif" font-size="14.00">AppComponent </text>
</g>
<!-- AppModule&#45;&gt;AppComponent  -->
<g id="edge5" class="edge">
<title>AppModule&#45;&gt;AppComponent </title>
<path fill="none" stroke="black" stroke-dasharray="1,5" d="M265,-149.91C265,-149.91 265,-168.79 265,-168.79"/>
<polygon fill="black" stroke="black" points="261.5,-168.79 265,-178.79 268.5,-168.79 261.5,-168.79"/>
</g>
<!-- AppRoutingModule -->
<g id="node5" class="node">
<title>AppRoutingModule</title>
<polygon fill="#8dd3c7" stroke="black" points="535.28,-84.8 532.28,-88.8 511.28,-88.8 508.28,-84.8 406.72,-84.8 406.72,-48.8 535.28,-48.8 535.28,-84.8"/>
<text text-anchor="middle" x="471" y="-62.6" font-family="Times,serif" font-size="14.00">AppRoutingModule</text>
</g>
<!-- AppRoutingModule&#45;&gt;AppModule -->
<g id="edge4" class="edge">
<title>AppRoutingModule&#45;&gt;AppModule</title>
<path fill="none" stroke="black" d="M471,-84.91C471,-104.14 471,-131.8 471,-131.8 471,-131.8 316.69,-131.8 316.69,-131.8"/>
<polygon fill="black" stroke="black" points="316.69,-128.3 306.69,-131.8 316.69,-135.3 316.69,-128.3"/>
</g>
</g>
</svg>
